<svg xmlns="http://www.w3.org/2000/svg" viewBox="0 0 596.56 496.34"><defs><style>.cls-1{fill:#fff;}</style></defs><g id="Layer_2" data-name="Layer 2"><g id="Layer_1-2" data-name="Layer 1"><path class="cls-1" d="M58.89,34.66l49.58-4.52c3.48-.32,7,3,10.6,10s6.36,15.64,8.14,26L151,205.37q2.67,15.6.11,26.72c-1.74,7.42-4.77,11.29-9,11.63l-38.18,3.06,14.89,120.85-25.35,1.91Zm47.82,47.6-22.9,2,13.7,111.18,25.52-2.1q3.64-.3,2.25-9.59l-13.9-92.51Q110,82,106.71,82.26Z" transform="translate(-58.89)"/><path class="cls-1" d="M133.26,27.87l18.6-1.69,57.81,282.63,48.64-3.75,12.54,51.12-76.06,5.72Z" transform="translate(-58.89)"/><path class="cls-1" d="M225.37,19.46l23.31-2.13L389.17,347.27l-26,2L331.7,275.92l-34.82,2.72,12.68,74.62-26,2ZM264,109l23.39,118.16,23.27-1.86L264.17,109Z" transform="translate(-58.89)"/><path class="cls-1" d="M285.12,14l20.08-1.84L410,204.41,331.61,9.76l18.59-1.7L490.58,339.64,463,341.71,354.75,149.58l72.44,194.83-25.35,1.91Z" transform="translate(-58.89)"/><path class="cls-1" d="M384.09,2.47l26.3-2.4q23.31-2.13,56.9,62.73L639.05,394.52q33.59,64.88-1.6,67.37l-38.55,2.75q-35.19,2.5-63.61-62.53L500.72,323l30.15-2.29,31.73,68.67q6.15,13.31,10,17.21t10.69,3.42l18.34-1.33q6.48-.47,6.46-4.67t-6.57-17.48L545.56,273l-35.17,2.72q-30,2.34-58.73-63.44L389.4,69.62Q361,4.59,384.09,2.47ZM494.48,222.59l25.28-2L448.19,75.25Q441.65,62,438.2,58A9.36,9.36,0,0,0,430,54.53L416.1,55.75c-3.15.28-4.62,1.83-4.43,4.62S414,69,418.1,77.86l57.24,124.06q5.81,12.56,9.68,16.83A11,11,0,0,0,494.48,222.59Z" transform="translate(-58.89)"/><path class="cls-1" d="M98.19,401.54l22.08-1.64,1.91,15.7-14.31,1.06,2.72,24.64,13.41-1,1.89,15.7-13.57,1,4.28,38.72-8.54.61Z" transform="translate(-58.89)"/><path class="cls-1" d="M124.74,400.52a22.07,22.07,0,0,1,5.33-2.17,29.63,29.63,0,0,1,5-.92,13.45,13.45,0,0,1,5.45.76,12,12,0,0,1,5.16,3.86,28.72,28.72,0,0,1,4.42,8,61.18,61.18,0,0,1,3.14,13.1q1.66,11.49.65,18.88c-.69,4.92-2.11,8.38-4.27,10.35l3.24,4.14,13.83,35.63-9.83.7-13.25-36.75-3.79-1.5,5.12,39.1-8.54.61ZM138.33,443l2.81-.21c2-.15,3.41-1.54,4.11-4.19s.65-6.67-.09-12.09a33.62,33.62,0,0,0-2.65-9.85q-1.8-3.75-4.55-3.56a13.6,13.6,0,0,0-2,.29,3.24,3.24,0,0,0-1.46.65Z" transform="translate(-58.89)"/><path class="cls-1" d="M184,469.05l-11,.79.55,21.84-8.47.6L164,396l6.24-.46,29.12,94.33-8.95.64Zm-11.34-13.13,7.66-.55-6.15-21.85-3.39-14.8-.25,0,1.26,15.09Z" transform="translate(-58.89)"/><path class="cls-1" d="M223.14,438.72l-2.62-18.17-.32,0L221,437l-1.2,33.77-2.81.2-14.09-32.79L197.52,422l-.38,0,4.48,18.15,8.73,48.92-8.06.57L186,395l7.64-.57,16.82,40.25,3.76,11.64.26,0-.75-12.13,1-41.3,7.51-.56,19,94.52-8.53.61Z" transform="translate(-58.89)"/><path class="cls-1" d="M227.85,391.92l22.09-1.63,3.48,15.65L239.12,407,244,430.21l13.2-1,3.47,15.66-13.35,1,5.14,24.29,15.27-1.09,3.49,15.65-24,1.71Z" transform="translate(-58.89)"/><path class="cls-1" d="M265.81,437.67l13.61-1,3.71,15.65-13.77,1Z" transform="translate(-58.89)"/><path class="cls-1" d="M304.73,408.48a70.12,70.12,0,0,1,1.46,7,42.78,42.78,0,0,1,.55,6.56,19.76,19.76,0,0,1-.66,5.47,7.79,7.79,0,0,1-2.13,3.72l.21.81a13.58,13.58,0,0,1,3.6,2.21,19.44,19.44,0,0,1,3.59,4.2,42,42,0,0,1,3.44,6.62,68.74,68.74,0,0,1,3.08,9.32A57.5,57.5,0,0,1,319.93,467a25.09,25.09,0,0,1-1.1,8.94,11.1,11.1,0,0,1-3.69,5.34,10.52,10.52,0,0,1-5.62,2.05l-2.44.17a29.25,29.25,0,0,1-3.27,0c-1.19-.06-2.42-.17-3.71-.36a15.71,15.71,0,0,1-3.68-1L274,389.19a27.45,27.45,0,0,1,4.8-1.8,29.61,29.61,0,0,1,5.93-1.06,16.82,16.82,0,0,1,5.57.55,13,13,0,0,1,5.38,3.17,25.69,25.69,0,0,1,4.91,6.85A55.57,55.57,0,0,1,304.73,408.48Zm-11.19,19.35a7.14,7.14,0,0,0,1.61-.32,6.06,6.06,0,0,0,1.41-.58,9.2,9.2,0,0,0,2-5.09,24.09,24.09,0,0,0-.91-8.86,36.94,36.94,0,0,0-2-5.9,16.57,16.57,0,0,0-2.19-3.75,6.48,6.48,0,0,0-2.33-1.89,5.07,5.07,0,0,0-2.42-.44,8.29,8.29,0,0,0-3.56.81L291.66,428ZM306,468.66q2.82-.21,3.7-4t-.91-10.78a37.51,37.51,0,0,0-2.41-7,14.67,14.67,0,0,0-2.61-3.93,5.8,5.8,0,0,0-2.73-1.65,9.2,9.2,0,0,0-2.76-.21l-3.36.24,6.65,26.83a5.14,5.14,0,0,0,2,.48A16.69,16.69,0,0,0,306,468.66Z" transform="translate(-58.89)"/><path class="cls-1" d="M329.64,444.85l-28-58.4,9.47-.7L327,421l3.47,10.19.33,0-2.19-10.56-3.82-35.87,8.52-.63,4.57,60,9.81,35.15-8.54.61Z" transform="translate(-58.89)"/><path class="cls-1" d="M346,431.85l13.61-1,4.66,15.62-13.78,1Z" transform="translate(-58.89)"/><path class="cls-1" d="M351.08,382.78l22.08-1.63,5,15.6-14.3,1.05,7.56,24.5,13.4-1,5,15.61-13.57,1L388.1,476.4l-8.54.61Z" transform="translate(-58.89)"/><path class="cls-1" d="M377.82,381.76a18.26,18.26,0,0,1,5-2.16,26.48,26.48,0,0,1,4.93-.91,14.69,14.69,0,0,1,5.68.75,15.85,15.85,0,0,1,6,3.83,36.44,36.44,0,0,1,6,8,70.9,70.9,0,0,1,5.74,13q3.91,11.43,4.33,18.77t-2.32,10.29l4.09,4.12,21,35.41-9.82.7L407.81,437l-4.13-1.49,12.8,38.87L408,475Zm22.05,42.18,2.8-.2c2.05-.15,3.16-1.54,3.35-4.17s-.63-6.64-2.44-12a39.94,39.94,0,0,0-4.6-9.78c-1.71-2.5-3.48-3.67-5.31-3.54a14.22,14.22,0,0,0-1.93.28,2.67,2.67,0,0,0-1.35.65Z" transform="translate(-58.89)"/><path class="cls-1" d="M451.27,449.85l-11,.79,4.8,21.7-8.47.6-19.82-95.72,6.24-.46,47.86,93.74-8.94.64Zm-14-13.05,7.65-.55L434.4,414.54l-6.32-14.71-.25,0,4.21,15Z" transform="translate(-58.89)"/><path class="cls-1" d="M485.05,419.68l-6.19-18.05-.32,0,3.94,16.28,5.34,33.57-2.81.2-20.66-32.59L455.81,403l-.38,0,8.07,18,18.35,48.61-8.06.58-34.94-94,7.63-.56,24.88,40,6.07,11.56.26,0-3.12-12.06-7-41.05,7.51-.55,37.61,93.94-8.54.6Z" transform="translate(-58.89)"/><path class="cls-1" d="M480.74,373.17l22.09-1.64,6.57,15.55-14.31,1.06,9.49,23.07,13.2-1,6.55,15.56-13.35,1,9.93,24.15,15.27-1.09,6.57,15.55-24,1.71Z" transform="translate(-58.89)"/></g></g></svg>