<svg id="Layer_1" data-name="Layer 1" xmlns="http://www.w3.org/2000/svg" xmlns:xlink="http://www.w3.org/1999/xlink" viewBox="0 0 600 600"><defs><style>.cls-1{fill:url(#linear-gradient);}.cls-2{fill:#fff;}.cls-3{fill:#e02519;}.cls-4{fill:#2d2d2d;}</style><linearGradient id="linear-gradient" x1="300" y1="598.2" x2="300" y2="-1.8" gradientUnits="userSpaceOnUse"><stop offset="0" stop-color="#e5ded6"/><stop offset="0.15" stop-color="#b6bec0"/><stop offset="0.38" stop-color="#7995a3"/><stop offset="0.58" stop-color="#48748c"/><stop offset="0.76" stop-color="#255d7c"/><stop offset="0.9" stop-color="#104e72"/><stop offset="1" stop-color="#08496e"/></linearGradient></defs><rect class="cls-1" width="600" height="600"/><polygon class="cls-2" points="613.42 701.23 80.36 750.22 24 -69 463.15 -69 613.42 701.23"/><path class="cls-3" d="M69.15,156.05l52.32-1.52q5.5-.17,9.94,6.75t5.4,17.07l8.48,90.74q.94,10.16-2.32,17.35t-9,7.46l-33.84,1.55,6.45,79.11-20.69,1.12Zm45.44,32.26-23.08.76,5.93,72.78,23.49-1q3.36-.14,2.82-6.2l-5.33-60.41C118.07,190.22,116.79,188.23,114.59,188.31Z"/><path class="cls-3" d="M147.63,153.77l19.62-.57L186,336.8,227,334.72l3.72,33.08-62.06,3.38Z"/><path class="cls-3" d="M244.82,151l24.59-.72,57.86,212.31L306,363.7,293.1,316.53,263.25,318l-.93,48.08-21.24,1.16Zm19.64,58-.77,75.94,20.69-.93-19.79-75Z"/><path class="cls-3" d="M307.86,149.11l21.19-.61,46.88,123.25-19-124.06,19.63-.57L410,358l-22.48,1.22-47.32-123L358.3,360.85,337.61,362Z"/><path class="cls-3" d="M416.52,140.87l29.08-.82q25.78-.74,33.73,42L520,400.68q7.95,42.75-19.89,44.55l-30.5,2q-27.84,1.8-34.89-41.42l-8.57-52.54,26-1.41,7.74,45.52c1,5.87,2.19,9.68,3.57,11.4s3.93,2.48,7.65,2.26l15-.91q5.28-.33,6.42-3.1t-.44-11.56l-13.41-75.07L447.34,322q-26.7,1.35-33.83-42.36l-15.46-94.79Q391,141.6,416.52,140.87Zm32.6,146,23.35-1.09-17.16-96q-1.57-8.77-3.57-11.41c-1.34-1.75-3.67-2.58-7-2.47l-14.67.49q-5,.16-6.19,2.91t.29,11.56l14,82.23q1.43,8.32,3.62,11.18T449.12,286.86Z"/><path class="cls-4" d="M96.55,425.77l8.76-.52.85,10.6-8.78.53,2.18,27.91-6.79.44-5-66,16.74-1,.85,10.59L95.24,409Z"/><path class="cls-4" d="M117.84,436.57,120,463l-6.78.44-5.36-65.85,10.22-.58a8.37,8.37,0,0,1,8.26,4.22q2.7,4.53,3.6,14.81a48.81,48.81,0,0,1-.1,11,12.48,12.48,0,0,1-2.83,6.78l8.12,28.2-7.07.46-7-26.1Zm2.64-10.7c1.35-.08,2.21-.91,2.59-2.5a23.34,23.34,0,0,0,.18-6.95,24.34,24.34,0,0,0-1.32-6.82,2.92,2.92,0,0,0-3-2.12l-3.49.2,1.52,18.4Z"/><path class="cls-4" d="M144.12,448.63l-.41,12.84-7.06.45,3.91-66.21,6.52-.37,15.67,64.91-7.06.45L153,448.08Zm1.12-37.33-.79,26.8,6.37-.4Z"/><path class="cls-4" d="M192.28,458.36l-6.79.43-3.78-38.21-2.32,25.84-3.63.23-7.2-25,3.63,38-6.79.44-6.14-65.43,6.68-.38,9.87,34.09L179,393.52l6.69-.38Z"/><path class="cls-4" d="M199.69,419.31l8.75-.53,1.1,10.38-8.78.53,1.82,17.56,10.24-.65L213.91,457l-17,1.09-6.62-65.18,16.74-.95,1.11,10.46L198,403Z"/><path class="cls-4" d="M228.4,418.06l1.15,10.35-15.08.92L213.36,419Z"/><path class="cls-4" d="M255.55,435.42q1.14,9.84-.71,14.45t-7.54,5L237,455.5l-7.23-64.87,10.17-.58q5.49-.32,8.31,3.73t3.88,13.14a30.85,30.85,0,0,1,0,8.21,9,9,0,0,1-2.58,5.35,10.14,10.14,0,0,1,4,5.33A44.11,44.11,0,0,1,255.55,435.42Zm-16.22-19.15,2.84-.17a3.16,3.16,0,0,0,3.07-2,13.92,13.92,0,0,0,.25-6,14.88,14.88,0,0,0-1.63-6,3.57,3.57,0,0,0-3.47-1.6l-2.84.17ZM248.69,435a18.44,18.44,0,0,0-1.82-7,3.71,3.71,0,0,0-3.62-1.95l-2.8.17,2.1,18.5,2.81-.17a3.27,3.27,0,0,0,3.22-2.33Q249.27,440.05,248.69,435Z"/><path class="cls-4" d="M274.13,453.12l-6.79.43-3-25.38L252,389.36l7.33-.42,6.55,24.52.63-24.92,7.39-.43L271.09,428Z"/><path class="cls-4" d="M294.71,414.09l1.3,10.26-15.08.92L279.66,415Z"/><path class="cls-4" d="M305.79,413.24l8.75-.53L315.9,423l-8.77.54,3.53,27.2-6.79.44-8.24-64.34,16.74-.95,1.37,10.32-10.08.59Z"/><path class="cls-4" d="M327.66,423.73l3.48,25.74-6.79.44-8.56-64.18,10.22-.58a8.9,8.9,0,0,1,8.48,4.1q2.94,4.41,4.33,14.43a45.87,45.87,0,0,1,.44,10.73,11.39,11.39,0,0,1-2.51,6.61l9.51,27.48-7.06.45-8.3-25.42Zm2.12-10.43a2.6,2.6,0,0,0,2.48-2.44,22.16,22.16,0,0,0-.15-6.78,24,24,0,0,0-1.65-6.64,3.11,3.11,0,0,0-3.11-2.07l-3.49.2,2.42,17.94Z"/><path class="cls-4" d="M354.6,435.44l.21,12.52-7.06.45.71-64.54,6.52-.37,18.88,63.24-7.07.45-3.33-12.3Zm-.69-36.39.51,26.12,6.37-.39Z"/><path class="cls-4" d="M403.38,444.85l-6.79.43L390.94,408l-1.06,25.19-3.64.23-8.44-24.35,5.49,37-6.79.44-9.34-63.76,6.68-.38,11.56,33.2,1.54-33.95,6.69-.38Z"/><path class="cls-4" d="M408.91,406.78l8.75-.52,1.6,10.1-8.77.54,2.68,17.1,10.24-.64,1.61,10.1-17,1.09L398.19,381l16.74-1,1.62,10.2-10.13.59Z"/></svg>