<svg xmlns="http://www.w3.org/2000/svg" viewBox="0 0 842.78 729.3"><defs><style>.cls-1{fill:#fff;}</style></defs><g id="Layer_2" data-name="Layer 2"><g id="Layer_1-2" data-name="Layer 1"><path class="cls-1" d="M0,109.74l66.53-14q7-1.49,13.67,7.62t9.51,23.75l24.51,130.81q2.75,14.65-.93,25.72T101.41,296L53,304.18,68.88,417.06l-31.35,4.69Zm61.94,36.62-30.25,6L46.28,256.25,79,250.44c3.11-.56,4.19-3.73,3.22-9.54L67.72,154.21Q66.27,145.51,61.94,146.36Z"/><path class="cls-1" d="M99.8,88.67l25-5.26L183.59,350l60.73-9.55L256.93,389,162.9,403Z"/><path class="cls-1" d="M223.38,62.59,254.65,56,403.2,367.1,371,371.91l-33.23-69.14-43.69,7,10.68,72-32.18,4.81Zm42.53,83.15L286,260.09l29.52-5L266.09,145.71Z"/><path class="cls-1" d="M303.55,45.66,330.5,40,443,220.56l-77-188.06,24.95-5.27L528.57,348.37l-34.06,5.09L378.81,172.53l71.4,187.55-31.34,4.68Z"/><path class="cls-1" d="M439.18,8.49,476,.66q32.63-7,67.31,59.57L720.64,400.41q34.68,66.54-10.24,72.36l-49.22,6.38Q616.26,485,586.92,419l-35.66-80.3,39.34-5.91,32.75,69.94q6.33,13.54,10.81,17.33t13.28,2.58L671,419.36q8.34-1.14,8.82-5.64t-6.28-18.07L615.81,279.5l-46.27,7.29q-39.46,6.22-69.1-60.56L436.19,81.4Q406.9,15.38,439.18,8.49ZM555.59,231.54,589.17,226,515.28,77.37Q508.53,63.79,504.46,60T493.89,57.6l-19.21,3.84c-4.34.87-6.59,2.84-6.75,5.88s1.86,9.08,6.08,18.11L533.1,211.78q6,12.79,10.54,16.89T555.59,231.54Z"/><path class="cls-1" d="M56.77,492l13.72-1.9,2,15.1L58.68,507.1l5,39.71-10.91,1.43L41.53,454.47l25.77-3.72,2.06,15.11-15.63,2.22Z"/><path class="cls-1" d="M91.1,504.76l5.52,37.74-10.91,1.42L72.57,450l15.72-2.27q8.53-1.25,13.15,4.93t7,20.9a64.2,64.2,0,0,1,.87,15.91q-.64,6.51-3.87,10.15l15.49,39.7-11.35,1.49L96.21,504.07ZM94.4,489c2.11-.3,3.4-1.61,3.87-3.95s.35-5.69-.32-10.05a32.43,32.43,0,0,0-2.64-9.65,4.42,4.42,0,0,0-4.85-2.65l-5.41.77,3.85,26.29Z"/><path class="cls-1" d="M134,518.89l.64,18.62L123.31,539l-.46-96.27,10-1.45,32.37,92.22L153.91,535l-5.76-18Zm-2.2-54.22,1.64,38.93,10.08-1.37Z"/><path class="cls-1" d="M212.71,527.28l-10.91,1.43-11.55-55.35v38l-5.79.78-14.79-35.52,10.76,54.87-10.91,1.43-17.89-94.37,10.29-1.48L182,485.48l0-51.31,10.29-1.48Z"/><path class="cls-1" d="M218.4,469.17l13.72-1.9,3.53,15.11-13.84,1.89,5.76,25.52,16.34-2.17,3.56,15.11-27.31,3.58L199.4,431.67,225.17,428l3.58,15.25L213,445.43Z"/><path class="cls-1" d="M263.5,463.63l3.82,15.13L243.52,482l-3.61-15.11Z"/><path class="cls-1" d="M310.27,485.92q4,14.47,2,21.53c-1.34,4.7-5.07,7.45-11.15,8.24l-16.59,2.18-24.4-95,15.64-2.26q8.46-1.22,13.73,4.4t9,19a43.74,43.74,0,0,1,1.86,12.2,12.21,12.21,0,0,1-2.9,8.27,17,17,0,0,1,7.49,7.41A66.27,66.27,0,0,1,310.27,485.92Zm-29.88-26.34,4.45-.62c2.46-.34,3.93-1.48,4.42-3.4s.18-4.92-.91-9q-1.71-6.33-3.85-8.75a6.1,6.1,0,0,0-5.78-1.9l-4.39.63Zm18.81,26.55Q297.27,479,294.81,476a6.43,6.43,0,0,0-6.17-2.44l-4.41.6,7.14,27.13,4.49-.6q4-.52,4.7-3.83T299.2,486.13Z"/><path class="cls-1" d="M344.23,510.05l-10.91,1.42-10.67-37.39L294.44,418l11.29-1.63,16,35.64-5-37.24,11.38-1.64,5.24,59.82Z"/><path class="cls-1" d="M367.45,449.22l4.79,15.22-23.8,3.25-4.58-15.2Z"/><path class="cls-1" d="M384.77,446.53l13.72-1.9L403.62,460l-13.85,1.89,13.17,40.45L392,503.78l-30.49-95.52,25.76-3.72,5.16,15.39-15.63,2.22Z"/><path class="cls-1" d="M422.6,459.6,435.84,498l-10.91,1.43-32.36-95.69,15.73-2.27a15.85,15.85,0,0,1,14.51,5.06q6,6.3,11.36,21.3a70.34,70.34,0,0,1,4.07,16.2q.64,6.62-1.95,10.32l23.85,40.46-11.36,1.49-21.07-37.43Zm.24-16q3.18-.43,3.19-4t-2.34-10.23A39.19,39.19,0,0,0,419,419.5q-2.3-3.17-5.51-2.71l-5.41.77,9.22,26.78Z"/><path class="cls-1" d="M469.52,474.09l4.36,19-11.35,1.49-19.67-98,10-1.45,51.58,94-11.35,1.49-9.49-18.32Zm-13.06-55.2,9.43,39.63L476,457.16Z"/><path class="cls-1" d="M551.92,482.83,541,484.26l-22.79-56.38,7.52,38.71-5.79.77-22.23-36.2,21.92,55.9-10.91,1.43-37.09-96.13,10.29-1.48,30.25,49.32L502.09,388l10.29-1.49Z"/><path class="cls-1" d="M546.32,423.69,560,421.78l6.6,15.39-13.85,1.89,10.94,26,16.35-2.18,6.62,15.39-27.32,3.58-40-96.38,25.76-3.72,6.68,15.52-15.71,2.24Z"/><path class="cls-1" d="M58.32,584.47l13.89-1.76L90.92,727.65,75.85,729.3Z"/><path class="cls-1" d="M123.9,576.19l12.8-1.62L160.93,720l-15.24,1.66L108.21,619.26l15.37,104.83-13.9,1.51L89.49,580.53l14.66-1.85,36,99.43Z"/><path class="cls-1" d="M185.77,568.37l14.34-1.81,10.74,148-21.44,2.34L145.5,573.46l14.34-1.81,36.5,124.78Z"/><path class="cls-1" d="M277.84,707.25,266,673.83l-21.7,2.45,3.41,34.26-15.07,1.65L219.86,564.07l20.22-2.56,53,144.08ZM242.41,659l17.76-2L233.9,581Z"/><path class="cls-1" d="M268.62,557.91l33.63-4.25q14.36-1.81,19.92,18.83l28.49,105.56q5.56,20.66-10,22.35l-36.51,4Zm66.23,119L308.7,577.06q-1.11-4.21-2.38-5.39c-.85-.78-2.2-1.06-4.07-.82l-15.43,1.91,28.39,113.33,16.44-1.82c2-.22,3.21-.8,3.64-1.73S335.58,679.73,334.85,676.92Z"/><path class="cls-1" d="M333.11,549.77,347,548,389.22,695.1l-15.07,1.64Z"/><path class="cls-1" d="M398.68,541.49l12.81-1.62,47.74,147.58L444,689.12l-54.46-104,32.35,106.37L408,693.05,364.27,545.83,378.93,544,431.4,644.91Z"/><path class="cls-1" d="M487.44,575.51l-14.39,1.74-6.86-19.61q-1.49-4.26-2.88-5.44a5.27,5.27,0,0,0-4.19-.84l-7.95,1c-1.87.23-3,.82-3.29,1.76s0,2.84.95,5.67L483.11,660.6q1.44,4.26,2.88,5.44c1,.8,2.43,1.08,4.43.86l8.46-.94c2-.22,3.17-.8,3.53-1.74s0-2.83-.94-5.67l-12.64-36.16-8.11.94L475,606.8l22.66-2.67,19.78,55.35q7.51,21-8.06,22.74l-17.92,2q-15.59,1.7-22.55-19.3L433.66,558.7q-6.9-20.76,7.45-22.57L457.62,534q14.34-1.81,21.79,19Z"/><path class="cls-1" d="M585.54,648.42l-14.29-36.31q-1.68-4.27-3.08-5.47c-.93-.8-2.37-1.09-4.31-.86l-12,1.39q-14.7,1.71-22.64-19.38L514.54,548.7Q506.68,527.85,521,526l15.12-1.9q14.36-1.82,22.73,19.08l8.77,21.85-14.39,1.74L546,548.29c-1.12-2.85-2.16-4.66-3.13-5.46a5.46,5.46,0,0,0-4.25-.84l-6.55.81c-1.87.23-2.94.83-3.23,1.77s.11,2.84,1.2,5.69l12.68,33c1.09,2.85,2.13,4.67,3.1,5.46a5.72,5.72,0,0,0,4.34.85l11.68-1.39q14.73-1.74,23.11,19.16l17.16,42.75q8.38,20.9-7.36,22.62l-16.25,1.77q-15.57,1.69-23.44-19.15l-8.21-21.8,14.89-1.7,7.12,18.5c1.1,2.84,2.14,4.67,3.14,5.46s2.49,1.08,4.49.86l7-.77c2-.22,3.12-.8,3.38-1.74S586.66,651.27,585.54,648.42Z"/><path class="cls-1" d="M578.27,518.81l17.13-2.17q14.34-1.8,23.44,19.16L665.36,643q9.09,21-6.48,22.66l-18.59,2Q624.54,669.42,616,648.5l-43.69-107Q563.78,520.64,578.27,518.81ZM649,641.33,606.21,540.87c-1.22-2.86-2.32-4.69-3.32-5.48a5.62,5.62,0,0,0-4.3-.85l-9,1.13c-1.87.23-2.91.82-3.11,1.76s.28,2.84,1.47,5.69l41.78,100.37c1.18,2.85,2.26,4.69,3.23,5.49s2.46,1.09,4.45.87l9.62-1.07c2-.22,3.14-.8,3.43-1.75S650.25,644.18,649,641.33Z"/><path class="cls-1" d="M638.91,511.15,656,509q14.36-1.82,24.18,19.22l50.24,107.54q9.82,21-5.75,22.73l-18.59,2q-15.75,1.72-25-19.26L633.67,534Q624.4,513,638.91,511.15ZM714,634.07,667.69,533.29q-2-4.31-3.52-5.5a5.71,5.71,0,0,0-4.34-.85l-9,1.12c-1.87.24-2.89.83-3.07,1.77s.38,2.85,1.67,5.71l45.27,100.69c1.29,2.86,2.43,4.7,3.44,5.5a5.94,5.94,0,0,0,4.49.88l9.62-1.07c2-.22,3.12-.8,3.38-1.75S715.32,636.93,714,634.07Z"/><path class="cls-1" d="M720.22,500.88l12.8-1.62,75.26,150.1L793,651,718.71,545.25l52.22,108.19L757,655,685.81,505.23l14.66-1.85,71.75,102.69Z"/><path class="cls-1" d="M748.76,497.28l16.82-2.13,49.83,101.67-12.24,1.4Zm77.1,150.16L810.8,617.92l16.66-1.87,15.32,29.54Z"/></g></g></svg>